<?xml version="1.0" encoding="iso-8859-1"?>
<!-- Generator: Adobe Illustrator 19.0.0, SVG Export Plug-In . SVG Version: 6.00 Build 0)  -->
<svg version="1.1" id="Layer_1" xmlns="http://www.w3.org/2000/svg" xmlns:xlink="http://www.w3.org/1999/xlink" x="0px" y="0px"
	 viewBox="0 0 512 512" style="enable-background:new 0 0 512 512;" xml:space="preserve">
<path style="fill:#CEE8FA;" d="M251.204,60.939c-28.328-23.617-67.491-35.196-126.978-35.196c-58.774,0-78.262,3.999-107.868,9.133
	v451.381h85.818V311.172c8.859,1.307,7.611,1.767,20.115,1.767c56.888,0,102.521-14.262,135.168-46.087
	c25.518-24.756,39.347-61.321,39.347-104.271C296.808,119.577,278.651,83.012,251.204,60.939z M121.683,236.735
	c-13.837,0-11.091-0.626-19.333-2.455V104.632c6.753-1.994,7.44-3.991,26.866-3.991c48.192,0,72.077,24.015,72.298,64.342
	C201.514,210.043,172.873,236.735,121.683,236.735z"/>
<g>
	<path style="fill:#2D527C;" d="M495.642,366.776c-9.033,0-16.358,7.323-16.358,16.358c0,54.329-41.065,86.765-109.844,86.765
		c-28.656,0-46.571-5.288-64.311-14.642l5.189-36.368c15.466,7.26,36.712,14.648,59.124,14.648c51.051,0,55.02-32.99,55.02-43.101
		c0-29.724-23.146-40.652-53.462-51.871c-33.303-12.195-72.848-36.005-72.112-80.188c0.002-0.09,0.002-0.182,0.002-0.273
		c0-52.584,41.021-87.915,102.073-87.915c21.394,0,40.273,3.564,57.341,10.863l-8.226,35.081
		c-12.113-5.428-27.648-10.273-46.039-10.273c-37.455,0-50.744,22.857-50.744,42.429c0,27.491,23.72,38.815,57.231,51.817
		c0.062,0.025,0.124,0.047,0.188,0.072c12.645,4.727,23.554,10.067,32.423,15.869c7.564,4.948,17.699,2.827,22.646-4.731
		c4.945-7.561,2.828-17.698-4.732-22.644c-11.02-7.211-23.707-13.459-38.783-19.101c-11.63-4.513-25.819-10.353-32.624-15.56
		c-3.635-2.781-3.635-3.887-3.635-5.72c0-2.403,0-9.713,18.028-9.713c19.961,0,35.056,7.924,48.805,16.039
		c4.482,2.647,9.955,3,14.74,0.955c4.786-2.043,8.313-6.242,9.502-11.308l16.05-68.441c1.675-7.15-1.616-14.539-8.053-18.074
		c-24.844-13.642-52.361-20.276-84.118-20.276c-34.198,0-64.29,9.121-87.824,26.487c0.003-0.463,0.029-0.918,0.029-1.384
		c0-46.213-18.807-87.863-51.599-114.297C229.67,21.744,186.023,9.384,124.228,9.384c-56.953,0-78.54,3.767-105.871,8.539
		l-4.793,0.834C5.725,20.118,0,26.921,0,34.876v451.381c0,9.034,7.325,16.358,16.358,16.358h85.82
		c9.033,0,16.358-7.323,16.358-16.358v-156.98c1.127,0.011,2.372,0.018,3.757,0.018c62.307,0,111.374-16.845,145.845-50.029
		c5.841,28.876,26.881,66.318,91.558,90.001c32.048,11.859,32.048,16.175,32.048,21.17c0,3.371,0,10.386-22.304,10.386
		c-22.458,0-47.968-11.519-62.989-21.383c-4.678-3.07-10.603-3.541-15.71-1.235c-5.102,2.303-8.673,7.055-9.463,12.599
		l-10.116,70.895c-0.931,6.53,2.148,12.98,7.813,16.358c24.71,14.742,49.551,24.56,90.464,24.56
		c43.628,0,79.944-11.5,105.025-33.257C499.02,448.058,512,418.243,512,383.134C512,374.099,504.675,366.776,495.642,366.776z
		 M122.293,296.58c-8.127,0-9.033-0.155-12.409-0.734c-1.386-0.237-3.041-0.52-5.32-0.855c-4.7-0.694-9.476,0.695-13.076,3.802
		c-3.599,3.106-5.668,7.628-5.668,12.381v158.728H32.716V48.641c22.79-3.874,43.423-6.54,91.511-6.54
		c54.521,0,90.452,9.684,116.504,31.402c0.074,0.062,0.149,0.123,0.224,0.182c25.101,20.187,39.498,52.587,39.498,88.893
		c0,38.163-12.209,71.024-34.409,92.557C217.433,283.024,176.956,296.58,122.293,296.58z"/>
	<path style="fill:#2D527C;" d="M194.419,105.643c-15.43-14.174-37.368-21.36-65.206-21.36c-17.115,0-22.548,1.495-28.883,3.777
		c-0.79,0.285-1.611,0.587-2.616,0.883c-6.952,2.053-11.725,8.439-11.725,15.689v129.647c0,7.669,5.328,14.308,12.815,15.97
		c1.718,0.381,2.789,0.684,3.826,0.978c5.27,1.492,8.063,1.866,19.05,1.866c29.123,0,53.364-8.03,70.105-23.223
		c17.064-15.486,26.083-37.924,26.083-64.977C217.734,140.099,209.626,119.611,194.419,105.643z M121.683,220.377
		c-1.135,0-2.12-0.003-2.975-0.01V117.314c2.411-0.201,5.715-0.316,10.508-0.316c37.466,0,55.764,15.725,55.94,47.984
		C185.154,210.766,150.638,220.377,121.683,220.377z"/>
</g>
<g>
</g>
<g>
</g>
<g>
</g>
<g>
</g>
<g>
</g>
<g>
</g>
<g>
</g>
<g>
</g>
<g>
</g>
<g>
</g>
<g>
</g>
<g>
</g>
<g>
</g>
<g>
</g>
<g>
</g>
</svg>
